<?xml version="1.0" encoding="utf-8"?>
<!-- Generated by IcoMoon.io -->
<!DOCTYPE svg PUBLIC "-//W3C//DTD SVG 1.1//EN" "http://www.w3.org/Graphics/SVG/1.1/DTD/svg11.dtd">

<svg version="1.1" xmlns="http://www.w3.org/2000/svg" xmlns:xlink="http://www.w3.org/1999/xlink" width="304" height="64" viewBox="0 0 304 64">
<defs>
<g id="icon-codepen">
	<path class="path1" d="M32.026 0c-17.688 0-32.026 14.346-32.026 32.026s14.338 32 32 32.026c17.686 0 32.026-14.338 32.026-32.026s-14.312-32.026-32.026-32.026zM32.026 58.79c-14.758 0-26.766-12.008-26.766-26.766s12.006-26.746 26.74-26.746c14.758 0 26.774 12 26.774 26.766s-11.99 26.728-26.774 26.746z"></path>
	<path class="path2" d="M51.812 25.77c-0.004-0.026-0.010-0.050-0.014-0.074-0.008-0.048-0.018-0.096-0.030-0.142-0.008-0.028-0.018-0.056-0.026-0.082-0.014-0.042-0.028-0.084-0.044-0.124-0.012-0.028-0.026-0.056-0.038-0.084-0.018-0.038-0.036-0.076-0.058-0.112-0.016-0.028-0.032-0.054-0.048-0.078-0.022-0.036-0.046-0.070-0.072-0.102-0.018-0.026-0.038-0.050-0.058-0.074-0.028-0.032-0.056-0.062-0.084-0.092-0.022-0.022-0.044-0.046-0.068-0.066-0.032-0.028-0.064-0.056-0.096-0.082-0.026-0.020-0.050-0.040-0.078-0.058-0.010-0.006-0.018-0.014-0.028-0.020l-18.1-12.044c-0.572-0.382-1.316-0.382-1.888 0l-18.1 12.044c-0.010 0.006-0.018 0.014-0.028 0.020-0.026 0.018-0.052 0.038-0.076 0.054-0.034 0.026-0.066 0.054-0.096 0.082-0.024 0.020-0.046 0.044-0.068 0.066-0.030 0.030-0.058 0.060-0.084 0.106-0.020 0.024-0.040 0.050-0.058 0.074-0.026 0.034-0.050 0.068-0.072 0.102-0.018 0.026-0.034 0.052-0.050 0.054-0.020 0.036-0.040 0.074-0.058 0.112-0.012 0.028-0.026 0.056-0.038 0.084-0.016 0.040-0.030 0.082-0.044 0.106-0.010 0.028-0.018 0.054-0.026 0.082-0.012 0.046-0.020 0.094-0.030 0.142-0.004 0.026-0.010 0.050-0.014 0.054-0.010 0.074-0.016 0.146-0.016 0.222v12.12c0 0.054 0 0.16 0 0.222 0.004 0 0 0.054 0 0.054 0.010 0.054 0 0.106 0.054 0.142 0.008 0.054 0 0.054 0.054 0.082 0.014 0.054 0.054 0.106 0.054 0.106 0.012 0.054 0 0.054 0.054 0.082 0.018 0.054 0.054 0.054 0.054 0.114 0.016 0 0.054 0.054 0.054 0.054 0.022 0.054 0.054 0.054 0.054 0.102 0.018 0 0.054 0.054 0.054 0.074 0.026 0.054 0.054 0.054 0.106 0.106 0.022 0 0.054 0.054 0.054 0.066 0.030 0.054 0.054 0.054 0.106 0.082 0.026 0 0.054 0.054 0.054 0.054 0.010 0 0 0 0.054 0.020l18.058 12.12c0.286 0.214 0.64 0.266 0.96 0.286 0.328 0 0.658-0.096 0.944-0.286l18.1-12.066c0.010-0.006 0.018-0.014 0.028-0.020 0.026-0.018 0.052-0.038 0.078-0.058 0.034-0.026 0.066-0.054 0.096-0.082 0.024-0.020 0.046-0.044 0.068-0.066 0.030-0.030 0.058-0.060 0.084-0.092 0.020-0.024 0.040-0.048 0.058-0.074 0.026-0.034 0.050-0.068 0.072-0.102 0.016-0.026 0.034-0.052 0.048-0.078 0.022-0.038 0.040-0.076 0.058-0.114 0.012-0.028 0.026-0.054 0.038-0.082 0.016-0.042 0.030-0.084 0.044-0.124 0.010-0.028 0.020-0.054 0.026-0.082 0.012-0.046 0.022-0.094 0.030-0.142 0.004-0.024 0.010-0.050 0.014-0.074 0.010-0.074 0.014-0.148 0.014-0.222v-12.068c-0.016-0.072-0.004-0.126-0.056-0.222zM33.726 17.106l13.334 8.888-5.956 3.984-7.378-4.936v-7.938zM30.324 17.12v7.938l-7.378 4.922-5.956-3.984 13.334-8.888zM15.628 29.178l4.258 2.848-4.258 2.848v-5.696zM30.324 46.946l-13.334-8.866 5.956-3.984 7.378 4.934v7.914zM32.026 36.052l-6.020-4.026 6.020-4.026 6.018 4.026-6.018 4.026zM33.726 46.946v-7.938l7.378-4.934 5.956 3.984-13.334 8.888zM48.424 34.874l-4.258-2.848 4.258-2.848v5.696z"></path>
</g>
<g id="icon-github">
	<path class="path1" d="M32 0c-17.674 0-32 14.326-32 32s14.326 32 32 32 32-14.326 32-32-14.326-32-32-32zM51.004 51.004c-2.47 2.47-5.344 4.408-8.544 5.762-0.812 0.344-1.638 0.646-2.476 0.906v-4.796c0-2.52-0.864-4.376-2.594-5.562 1.084-0.104 2.078-0.25 2.984-0.438s1.864-0.458 2.876-0.812 1.916-0.776 2.718-1.266 1.572-1.126 2.312-1.906 1.36-1.666 1.86-2.656 0.896-2.178 1.188-3.562 0.438-2.912 0.438-4.578c0-3.23-1.052-5.98-3.156-8.25 0.958-2.5 0.854-5.218-0.312-8.156l-0.782-0.094c-0.542-0.062-1.516 0.166-2.922 0.688s-2.984 1.376-4.734 2.562c-2.48-0.688-5.052-1.032-7.718-1.032-2.688 0-5.25 0.344-7.688 1.032-1.104-0.75-2.15-1.37-3.14-1.86s-1.782-0.822-2.376-1-1.146-0.286-1.656-0.328-0.838-0.052-0.984-0.032-0.25 0.042-0.312 0.062c-1.166 2.958-1.27 5.678-0.312 8.156-2.104 2.27-3.156 5.020-3.156 8.25 0 1.666 0.146 3.192 0.438 4.578s0.688 2.572 1.188 3.562 1.12 1.876 1.86 2.656 1.51 1.416 2.312 1.906 1.708 0.912 2.718 1.266 1.968 0.626 2.876 0.812 1.9 0.334 2.984 0.438c-1.708 1.166-2.562 3.020-2.562 5.562v4.89c-0.944-0.28-1.874-0.612-2.788-1-3.2-1.354-6.074-3.292-8.544-5.762s-4.408-5.344-5.762-8.544c-1.4-3.31-2.11-6.828-2.11-10.46s0.71-7.15 2.11-10.46c1.354-3.2 3.292-6.074 5.762-8.544s5.344-4.408 8.544-5.762c3.31-1.4 6.83-2.11 10.46-2.11s7.15 0.71 10.46 2.11c3.2 1.354 6.074 3.292 8.544 5.762s4.408 5.344 5.762 8.544c1.4 3.31 2.11 6.83 2.11 10.46s-0.71 7.15-2.11 10.46c-1.354 3.2-3.292 6.074-5.762 8.544z"></path>
</g>
<g id="icon-mail">
	<path class="path1" d="M5.1 16.916c1.562 0.842 23.196 12.46 24.004 12.892 0.804 0.432 1.846 0.64 2.896 0.64 1.052 0 2.096-0.208 2.9-0.644 0.806-0.432 22.438-12.052 24-12.892 1.564-0.838 3.044-3.472 0.172-3.472h-54.14c-2.87 0-1.396 2.634 0.17 3.476zM59.562 23.316c-1.776 0.928-23.574 12.324-24.662 12.892s-1.846 0.644-2.9 0.644c-1.050 0-1.808-0.074-2.896-0.644s-22.89-11.968-24.662-12.892c-1.252-0.652-1.242 0.112-1.242 0.7s0 23.472 0 23.472c0 1.344 1.788 3.072 3.174 3.072h51.254c1.388 0 3.172-1.728 3.172-3.068 0 0 0-22.884 0-23.472 0-0.592 0.012-1.356-1.238-0.704z"></path>
</g>
<g id="icon-twitter">
	<path class="path1" d="M64 12.152c-2.354 1.044-4.886 1.75-7.542 2.068 2.71-1.626 4.792-4.198 5.774-7.264-2.538 1.504-5.348 2.598-8.338 3.186-2.396-2.552-5.808-4.146-9.584-4.146-7.252 0-13.13 5.878-13.13 13.13 0 1.030 0.116 2.032 0.34 2.992-10.912-0.548-20.588-5.776-27.064-13.72-1.13 1.94-1.778 4.194-1.778 6.602 0 4.556 2.318 8.574 5.842 10.93-2.152-0.068-4.176-0.658-5.948-1.642-0.002 0.054-0.002 0.11-0.002 0.166 0 6.362 4.526 11.668 10.532 12.874-1.102 0.3-2.262 0.46-3.46 0.46-0.846 0-1.668-0.082-2.47-0.236 1.67 5.216 6.52 9.012 12.266 9.118-4.494 3.522-10.156 5.62-16.308 5.62-1.060 0-2.104-0.062-3.132-0.184 5.81 3.726 12.712 5.9 20.128 5.9 24.152 0 37.358-20.008 37.358-37.36 0-0.57-0.012-1.136-0.038-1.698 2.566-1.852 4.792-4.164 6.552-6.796z"></path>
</g>
</defs>

<g fill="#ffffff">
	<use xlink:href="#icon-codepen" transform="translate(0 0)"></use>
	<use xlink:href="#icon-github" transform="translate(80 0)"></use>
	<use xlink:href="#icon-mail" transform="translate(160 0)"></use>
	<use xlink:href="#icon-twitter" transform="translate(240 0)"></use>
</g>

</svg>
